<svg width="512" height="512" viewBox="0 0 512 512" fill="none" xmlns="http://www.w3.org/2000/svg">
<path d="M367.36 72.16C377.409 72.3651 386.976 76.501 394.01 83.68C401.044 90.8591 404.984 100.509 404.984 110.56C404.984 120.611 401.044 130.261 394.01 137.44C386.976 144.619 377.409 148.755 367.36 148.96H195.68V107.76C195.68 102.88 196.64 98.16 198.48 93.92C200.24 89.68 202.88 85.84 206.08 82.64C209.28 79.44 213.12 76.8 217.36 75.04C218.56 74.48 219.84 74.08 221.12 73.68C224.32 72.72 227.68 72.24 231.2 72.24H195.68C193.2 72.24 190.8 72.4 188.4 72.56C191.04 72.32 193.6 72.16 196.24 72.16H367.36ZM319.2 231.44C326.16 238.48 330.48 248.16 330.48 258.8C330.48 280.16 313.2 297.44 291.84 297.44H195.68V220.16H291.84C302.56 220.16 312.16 224.48 319.2 231.44Z" fill="#009068"/>
<path d="M196.24 72.24H231.2C227.68 72.24 224.32 72.72 221.12 73.68C219.84 74.08 218.56 74.48 217.36 75.04C213.12 76.8 209.28 79.44 206.08 82.64C202.88 85.84 200.24 89.68 198.48 93.92C196.64 98.16 195.68 102.88 195.68 107.76V395.36C195.68 407.157 190.994 418.47 182.652 426.812C174.31 435.154 162.997 439.84 151.2 439.84C139.403 439.84 128.09 435.154 119.748 426.812C111.406 418.47 106.72 407.157 106.72 395.36V161.68C106.72 147.76 109.92 134.56 115.68 122.8C120 113.68 125.92 105.44 132.96 98.4C146.56 84.88 164.48 75.6 184.56 73.04C185.6 72.88 186.72 72.72 187.76 72.64C187.92 72.64 188.16 72.64 188.4 72.56C190.8 72.4 193.2 72.24 195.68 72.24H196.24Z" fill="#02CD9F"/>
</svg>
